# xmcd
#
# Track frame offsets:
#       150
#       2877
#       11669
#       15252
#       25556
#       28197
#       44449
#       45802
#       49171
#       61010
#
# Disc length: 4148 seconds
#
# Revision: 0
# Processed by: cddbd v1.5.2PL0 Copyright (c) Steve Scherf et al.
# Submitted via: CD-DA_X-Tractor v0.21
#
DISCID=6610320a
DTITLE=Various Artist - O Brother Where Art Thou?
DYEAR=2000
DGENRE=Country
TTITLE0="Jesus, can't I count on you people ..."
TTITLE1=Gillian Welch/ Alison Krauss/ Emmylou Harris - Didn't Leave Nobody But The Baby
TTITLE2="... Come on in boys, the water's fine."
TTITLE3=The Stanley Brothers - Angel Band
TTITLE4="I'm George Nelson ..."
TTITLE5=Soggy Bottom Boys - In The Jailhouse
TTITLE6="... And here are the Soggy Bottom Boys ..."
TTITLE7=Soggy Bottom Boys - I Am A Man Of Constant Sorrow
TTITLE8="I believe you did sell your soul to the Devil ..."
TTITLE9=Data Track
EXTD=
EXTT0=
EXTT1=
EXTT2=
EXTT3=
EXTT4=
EXTT5=
EXTT6=
EXTT7=
EXTT8=
EXTT9=
PLAYORDER=
